<?xml version="1.0" encoding="UTF-8" standalone="no"?>
<svg
   version="1.1"
   viewBox="0 0 169.94499 144.80324"
   fill="none"
   stroke="none"
   stroke-linecap="square"
   stroke-miterlimit="10"
   id="svg142"
   sodipodi:docname="logo.svg"
   inkscape:version="1.2.1 (9c6d41e, 2022-07-14)"
   width="33.988998"
   height="28.960648"
   inkscape:export-filename="logo-small.svg"
   inkscape:export-xdpi="47.419998"
   inkscape:export-ydpi="47.419998"
   xmlns:inkscape="http://www.inkscape.org/namespaces/inkscape"
   xmlns:sodipodi="http://sodipodi.sourceforge.net/DTD/sodipodi-0.dtd"
   xmlns="http://www.w3.org/2000/svg"
   xmlns:svg="http://www.w3.org/2000/svg">
  <defs
     id="defs146" />
  <sodipodi:namedview
     id="namedview144"
     pagecolor="#ffffff"
     bordercolor="#000000"
     borderopacity="0.25"
     inkscape:showpageshadow="2"
     inkscape:pageopacity="0.0"
     inkscape:pagecheckerboard="0"
     inkscape:deskcolor="#d1d1d1"
     showgrid="false"
     inkscape:zoom="17.504709"
     inkscape:cx="15.281602"
     inkscape:cy="13.225012"
     inkscape:window-width="1512"
     inkscape:window-height="859"
     inkscape:window-x="368"
     inkscape:window-y="197"
     inkscape:window-maximized="0"
     inkscape:current-layer="g140" />
  <clipPath
     id="p.0">
    <path
       d="M 0,0 H 202.46194 V 182.52231 H 0 Z"
       clip-rule="nonzero"
       id="path91" />
  </clipPath>
  <g
     clip-path="url(#p.0)"
     id="g140"
     transform="translate(-24.978466,-25.232902)">
    <path
       style="display:inline;fill:#ffffff;stroke:none;stroke-width:1.33228;stroke-dasharray:none;stroke-opacity:1"
       d="m 109.80767,38.448501 c -2.05018,0.625699 -3.84883,1.923157 -5.71976,2.952743 -13.434554,8.214211 -22.891596,22.071167 -26.973988,37.159101 -5.58792,20.209944 -1.98455,43.031125 10.53806,59.990165 5.736213,7.67569 13.172888,14.26944 21.969318,18.1983 1.20539,0.0921 2.24345,-0.83493 3.30988,-1.28576 13.07927,-6.93718 22.9062,-19.19325 27.9687,-32.99934 2.38227,-6.57074 3.9792,-13.48548 4.2709,-20.48205 0.12959,-6.029714 0.15891,-12.12204 -1.14464,-18.044346 -2.56755,-13.452369 -9.1188,-26.24947 -19.1943,-35.617512 -4.2358,-4.016657 -9.11066,-7.415725 -14.45105,-9.784781 -0.18542,-0.05597 -0.37857,-0.09462 -0.57312,-0.08652 z m 21.8369,30.99762 c 0,1.24977 0,2.499542 0,3.749313 -7.27756,0.01678 -14.55865,-0.06886 -21.83234,0.219553 -0.95066,0.438177 -0.28471,1.823713 -0.48334,2.66456 0.0427,5.089872 -0.0853,10.21384 0.064,15.282413 0.5544,0.735993 1.78361,0.153708 2.6063,0.322748 6.60398,-0.07148 13.20795,-0.142917 19.81194,-0.214339 0,2.446848 0,4.893698 0,7.340548 -7.13869,0.362663 -14.3194,0.0306 -21.46814,0.334175 -1.40486,-0.174268 -1.03965,1.363348 -1.05549,2.250658 0.0754,11.80535 0.15079,23.61069 0.22615,35.41603 -2.87179,-0.0321 -5.74855,0.0733 -8.6172,-0.0849 -0.13096,-8.98674 -0.10014,-17.97496 -0.14345,-26.9624 -0.46432,-1.18323 -1.435112,0.28454 -1.896952,0.73996 -3.342425,3.4882 -6.656939,6.99793 -10.034687,10.45236 -1.594366,-1.41157 -3.09625,-2.923 -4.635982,-4.39301 5.502888,-5.76435 11.005691,-11.52879 16.508431,-17.293285 0.32388,-1.809619 0.0475,-3.735293 0.14201,-5.58933 0.31987,-1.35035 -1.133153,-1.175275 -1.556798,-0.220633 -3.732911,3.798302 -7.363204,7.692138 -11.121199,11.461748 -1.566174,-1.41338 -3.086725,-2.91278 -4.623622,-4.37415 5.714537,-5.921001 11.429327,-11.841757 17.144319,-17.762319 0.32994,-1.809247 0.0546,-3.737154 0.15237,-5.591926 0.39299,-1.061625 -0.67688,-1.969037 -1.321319,-0.792883 C 95.544147,80.421001 91.631,84.491885 87.70961,88.554695 86.21247,87.080193 84.664655,85.654349 83.240163,84.108017 88.876126,78.02232 94.713289,72.10278 100.45701,66.109882 c 10.37503,-0.355997 20.79357,-0.27921 31.18758,-0.408857 0,1.248363 0,2.496724 0,3.745086 z"
       id="path6413" />
    <path
       style="fill:#7800d4;fill-opacity:1;stroke:#619648;stroke-width:7.82367;stroke-dasharray:none;stroke-opacity:1"
       d="M 104.37603,69.451904 V 133.23686"
       id="path12900" />
    <path
       fill="#000000"
       fill-opacity="0"
       d="M 0,0 H 202.46194 V 182.52231 H 0 Z"
       fill-rule="evenodd"
       id="path94" />
    <path
       fill="#000000"
       fill-opacity="0"
       d="m 100.56752,60.308943 0.22047,74.582687"
       fill-rule="evenodd"
       id="path96" />
    <path
       fill="#000000"
       fill-opacity="0"
       d="m 104.56292,87.306869 25.03937,-0.063"
       fill-rule="evenodd"
       id="path100" />
    <path
       stroke="#000000"
       stroke-width="7.76291"
       stroke-linejoin="round"
       stroke-linecap="butt"
       d="m 106.10736,95.861473 25.78974,-0.27972"
       fill-rule="evenodd"
       id="path102"
       style="stroke-width:8.82;stroke-dasharray:none" />
    <path
       stroke="#000000"
       stroke-width="7.76291"
       stroke-linejoin="round"
       stroke-linecap="butt"
       d="m 106.228,69.829584 25.7976,-0.274673"
       fill-rule="evenodd"
       id="path102-7"
       style="stroke-width:8.7414;stroke-dasharray:none" />
    <path
       fill="#000000"
       fill-opacity="0"
       d="M 100.16673,61.718423 87.001369,73.403466"
       fill-rule="evenodd"
       id="path104" />
    <path
       fill="#000000"
       fill-opacity="0"
       d="m 104.34459,62.290213 25.6063,0.377953"
       fill-rule="evenodd"
       id="path108" />
    <path
       fill="#000000"
       fill-opacity="0"
       d="M 100.13943,73.955848 86.974076,85.640884"
       fill-rule="evenodd"
       id="path112" />
    <path
       fill="#000000"
       fill-opacity="0"
       d="M 100.13943,86.509653 86.974076,98.194696"
       fill-rule="evenodd"
       id="path116" />
    <path
       fill="#000000"
       fill-opacity="0"
       d="m 104.34443,60.314193 0.22047,74.582687"
       fill-rule="evenodd"
       id="path120" />
    <path
       fill="#000000"
       fill-opacity="0"
       d="m 29.978466,97.602993 v 0 c 0,-37.20747 26.630242,-67.370091 59.480315,-67.370091 v 0 c 15.775159,0 30.904209,7.097899 42.058929,19.73224 11.15472,12.634342 17.42139,29.770184 17.42139,47.637844 v 0 c 0,37.207464 -26.63025,67.370074 -59.480318,67.370074 v 0 c -32.850075,0 -59.480315,-30.16261 -59.480315,-67.370074 z"
       fill-rule="evenodd"
       id="path124" />
    <path
       stroke="#000000"
       stroke-width="3.0"
       stroke-linejoin="round"
       stroke-linecap="butt"
       d="m 29.978466,97.602993 v 0 c 0,-37.20747 26.630242,-67.370091 59.480315,-67.370091 v 0 c 15.775159,0 30.904209,7.097899 42.058929,19.73224 11.15472,12.634342 17.42139,29.770184 17.42139,47.637844 v 0 c 0,37.207464 -26.63025,67.370074 -59.480318,67.370074 v 0 c -32.850075,0 -59.480315,-30.16261 -59.480315,-67.370074 z"
       fill-rule="evenodd"
       id="path126"
       style="stroke-width:10;stroke-dasharray:none" />
    <path
       fill="#000000"
       fill-opacity="0"
       d="m 70.962698,97.602993 v 0 c 0,-37.20747 26.630249,-67.370091 59.480312,-67.370091 v 0 c 15.77517,0 30.90422,7.097899 42.05894,19.73224 11.15472,12.634342 17.42139,29.770184 17.42139,47.637844 v 0 c 0,37.207464 -26.63025,67.370074 -59.48033,67.370074 v 0 c -32.850063,0 -59.480312,-30.16261 -59.480312,-67.370074 z"
       fill-rule="evenodd"
       id="path128" />
    <path
       stroke="#000000"
       stroke-width="3.0"
       stroke-linejoin="round"
       stroke-linecap="butt"
       d="m 70.962698,97.602993 v 0 c 0,-37.20747 26.630249,-67.370091 59.480312,-67.370091 v 0 c 15.77517,0 30.90422,7.097899 42.05894,19.73224 11.15472,12.634342 17.42139,29.770184 17.42139,47.637844 v 0 c 0,37.207464 -26.63025,67.370074 -59.48033,67.370074 v 0 c -32.850063,0 -59.480312,-30.16261 -59.480312,-67.370074 z"
       fill-rule="evenodd"
       id="path130"
       style="stroke-width:10;stroke-dasharray:none" />
    <path
       fill="#000000"
       fill-opacity="0"
       d="M 130.44301,30.232912 H 89.466633"
       fill-rule="evenodd"
       id="path132" />
    <path
       stroke="#000000"
       stroke-width="3.0"
       stroke-linejoin="round"
       stroke-linecap="butt"
       d="M 130.44301,30.232912 H 89.466633"
       fill-rule="evenodd"
       id="path134"
       style="stroke-width:10;stroke-dasharray:none" />
    <path
       fill="#000000"
       fill-opacity="0"
       d="M 130.44301,164.97307 H 89.466633"
       fill-rule="evenodd"
       id="path136" />
    <path
       stroke="#000000"
       stroke-width="3.0"
       stroke-linejoin="round"
       stroke-linecap="butt"
       d="M 130.23472,165.03614 H 89.258346"
       fill-rule="evenodd"
       id="path134-7"
       style="stroke-width:10;stroke-dasharray:none" />
    <path
       style="fill:#b8b8b8;fill-opacity:1;stroke:none;stroke-width:0.832675;stroke-dasharray:none;stroke-opacity:1"
       d="M 88.85713,32.340958 C 75.408131,32.419188 62.252867,38.211263 52.703531,47.607519 46.535487,53.391941 41.651357,60.468105 38.22424,68.186868 28.085411,90.85545 30.559167,118.84921 45.144884,139.05177 c 6.246631,8.48179 14.531817,15.61702 24.296939,19.71655 5.832197,2.52871 12.173853,3.86728 18.518881,4.07002 5.174361,0.17494 10.336624,-0.52859 15.335856,-1.84424 1.04501,-0.7218 -0.60444,-1.33207 -1.15198,-1.67935 C 90.186056,152.30893 80.90213,141.24361 75.346666,128.56064 65.60743,106.57855 66.896148,80.130539 79.054337,59.347268 84.837133,49.327511 93.299797,40.897104 103.32919,35.1696 c 0.96695,-0.944941 -0.87187,-1.177333 -1.52535,-1.30558 -4.233043,-1.028345 -8.588793,-1.564785 -12.94671,-1.523062 z"
       id="path5821" />
    <path
       style="fill:#666666;fill-opacity:1;stroke:none;stroke-width:0.832675;stroke-dasharray:none;stroke-opacity:1"
       d="m 130.1526,32.320791 c -4.62062,0.07081 -9.27466,0.723776 -13.70379,1.977533 -0.75575,0.887687 1.03725,1.282683 1.55896,1.764487 13.82276,8.124897 23.91858,21.686138 28.94469,36.757526 2.84794,8.527316 4.29843,17.527567 3.95648,26.531711 -0.0235,9.657652 -2.1895,19.251352 -5.88965,28.166112 -5.2974,12.70037 -14.43837,23.88162 -26.16667,31.149 -0.82436,0.58746 -1.88515,0.88432 -2.56503,1.63152 0.11056,0.97484 1.49168,0.86099 2.22298,1.16504 4.19888,0.95215 8.49843,1.54924 12.81168,1.32095 10.05147,0.0372 19.92006,-3.40098 28.22659,-8.95905 14.0683,-9.43346 23.45006,-24.93053 26.7734,-41.40352 1.26572,-5.84016 1.60605,-11.83467 1.35786,-17.795221 -0.25764,-11.55657 -3.61435,-23.007882 -9.39923,-32.999513 -7.29226,-12.592824 -19.03998,-22.902719 -33.1115,-27.090878 -4.86636,-1.44062 -9.93391,-2.270939 -15.01677,-2.215697 z"
       id="path5892" />
    <path
       style="fill:#7800d4;fill-opacity:1;stroke:#619648;stroke-width:7.22232;stroke-dasharray:none;stroke-opacity:1"
       d="M 100.44254,70.739658 87.645096,84.019521"
       id="path12902"
       sodipodi:nodetypes="cc" />
    <path
       style="fill:#7800d4;fill-opacity:1;stroke:#619648;stroke-width:7.22232;stroke-dasharray:none;stroke-opacity:1"
       d="M 100.38678,87.668767 88.075065,100.45637"
       id="path12902-0"
       sodipodi:nodetypes="cc" />
    <path
       style="fill:#7800d4;fill-opacity:1;stroke:#619648;stroke-width:7.22232;stroke-dasharray:none;stroke-opacity:1"
       d="m 100.46623,104.15152 -11.767799,12.3337"
       id="path12902-4"
       sodipodi:nodetypes="cc" />
    <path
       stroke="#000000"
       stroke-width="7.34986"
       stroke-linejoin="round"
       stroke-linecap="butt"
       d="m 107.3996,65.441624 0.13547,71.759326"
       fill-rule="evenodd"
       id="path122"
       style="stroke-width:5.79168;stroke-dasharray:none"
       sodipodi:nodetypes="cc" />
  </g>
</svg>
